<svg width="10" height="6" viewBox="0 0 10 6" fill="none" xmlns="http://www.w3.org/2000/svg">
<path d="M5 5.77779C4.85238 5.77726 4.71092 5.71856 4.60632 5.61442L0.14952 1.15886C0.0511134 1.05329 -0.00245966 0.913645 8.67922e-05 0.769358C0.00263324 0.625071 0.0611003 0.487406 0.163171 0.385364C0.265241 0.283322 0.402945 0.224871 0.547272 0.222325C0.691598 0.219779 0.831279 0.273337 0.936887 0.371716L5 4.4337L9.06311 0.371714C9.16872 0.273336 9.3084 0.219778 9.45273 0.222323C9.59705 0.224869 9.73476 0.28332 9.83683 0.385362C9.9389 0.487404 9.99737 0.62507 9.99991 0.769356C10.0025 0.913643 9.94889 1.05329 9.85048 1.15886L5.39368 5.61442C5.28908 5.71856 5.14762 5.77726 5 5.77779Z" fill="#3C00E5"/>
</svg>
