<svg width="16" height="17" viewBox="0 0 16 17" fill="none" xmlns="http://www.w3.org/2000/svg">
<path d="M15.3973 3.84801L12.6363 1.07759C11.866 0.30747 10.5355 0.30747 9.7652 1.07759L1.052 9.79894C0.911946 9.93896 0.821909 10.119 0.781894 10.309L0.0416156 14.0396C-0.098436 14.7197 0.121643 15.4098 0.60182 15.8999C0.991964 16.29 1.51217 16.5 2.05237 16.5C2.18241 16.5 2.32245 16.49 2.46251 16.46L6.18388 15.7099C6.37395 15.6699 6.55403 15.5798 6.69408 15.4398L15.4073 6.71847C16.1976 5.92835 16.1976 4.63814 15.4073 3.84801H15.3973ZM1.99233 14.4397L2.58256 11.4992L4.98344 13.8996L2.00235 14.4397H1.99233ZM13.9868 5.30825L6.60403 12.6994L3.80301 9.88897L11.2257 2.49781L13.9868 5.26823C13.9868 5.26823 13.9968 5.29825 13.9868 5.30825Z" fill="#626262"/>
</svg>
